# xmcd
#
# Track frame offsets: 
#        150
#        11490
#        21812
#        31150
#        42415
#        56082
#        66207
#        79012
#        93267
#        106515
#        115812
#        129102
#        139805
#        149910
#        161335
#        172395
#
# Disc length: 2490 seconds
#
# Revision: 0
# Processed by: cddbd v1.5.2PL0 Copyright (c) Steve Scherf et al.
# Submitted via: ExactAudioCopy v0.99pb5
#
DISCID=d309b810
DTITLE=Various Artist - Sounds Of The Sixties - Country Style - CD 3
DYEAR=2001
DGENRE=Oldies
TTITLE0=Jerry Reed - Guitar man
TTITLE1=Statler Brothers - You can't have your Kate and Edith, too
TTITLE2=Chet Atkins - Yakety axe
TTITLE3="Little" Jimmy Dickens - May the bird of paradise fly up your 
TTITLE3=nose
TTITLE4=Billie Jo Spears - Mr. Walker, it's all over
TTITLE5=Johnny Horton - Honky-Tonk Man
TTITLE6=Joe South - Rose garden
TTITLE7=Ray Sanders - Beer drinkin' music
TTITLE8=Waylon Jennings - Love of the common people
TTITLE9=Waylon Jennings - Brown-eyed handsome man
TTITLE10=Johnny Darrell - The son of Hickory Holler's tramp
TTITLE11=Floyd Cramer - San Antonio rose
TTITLE12=George Hamilton IV - Abilene
TTITLE13=Lester Flatt and Earl Scruggs - Petticoat junction
TTITLE14=Sonny James - I'll never find another you
TTITLE15=Hank Locklin - The country hall of fame
EXTD=
EXTT0=
EXTT1=
EXTT2=
EXTT3=
EXTT4=
EXTT5=
EXTT6=
EXTT7=
EXTT8=
EXTT9=
EXTT10=
EXTT11=
EXTT12=
EXTT13=
EXTT14=
EXTT15=
PLAYORDER=
